<svg xmlns="http://www.w3.org/2000/svg" xmlns:xlink="http://www.w3.org/1999/xlink" width="700" zoomAndPan="magnify" viewBox="0 0 525 149.999998" height="200" preserveAspectRatio="xMidYMid meet" version="1.0"><defs><g/><clipPath id="d450aa3b21"><path d="M 44.488281 60 L 108 60 L 108 117 L 44.488281 117 Z M 44.488281 60 " clip-rule="nonzero"/></clipPath><clipPath id="8d19e6c739"><path d="M 107 31.628906 L 171.238281 31.628906 L 171.238281 88 L 107 88 Z M 107 31.628906 " clip-rule="nonzero"/></clipPath></defs><g clip-path="url(#d450aa3b21)"><path fill="#0cc0df" d="M 87.167969 100.539062 L 87.167969 108.253906 L 52.226562 92.019531 L 52.226562 85.761719 L 87.167969 69.527344 L 87.167969 77.246094 L 60.746094 88.816406 L 60.746094 88.964844 Z M 107.917969 60.957031 L 49.488281 60.957031 C 46.730469 60.957031 44.492188 63.191406 44.492188 65.953125 L 44.492188 111.832031 C 44.492188 114.589844 46.730469 116.824219 49.488281 116.824219 L 91.699219 116.824219 L 107.917969 60.957031 " fill-opacity="1" fill-rule="nonzero"/></g><g clip-path="url(#8d19e6c739)"><path fill="#00bf63" d="M 163.511719 62.941406 L 128.574219 78.953125 L 128.574219 71.238281 L 155.578125 59.664062 L 155.578125 59.519531 L 128.574219 47.945312 L 128.574219 40.230469 L 163.511719 56.242188 Z M 124.136719 31.65625 L 107.917969 87.527344 L 166.253906 87.527344 C 169.011719 87.527344 171.246094 85.289062 171.246094 82.53125 L 171.246094 36.652344 C 171.246094 33.894531 169.011719 31.65625 166.253906 31.65625 L 124.136719 31.65625 " fill-opacity="1" fill-rule="nonzero"/></g><g fill="#ffffff" fill-opacity="1"><g transform="translate(208.29613, 72.995132)"><g><path d="M 17.414062 -25.796875 L 3.265625 -25.796875 L 3.265625 -20.765625 L 11.738281 -20.765625 L 11.738281 -7.351562 C 11.738281 -5.804688 10.621094 -4.644531 9.199219 -4.644531 C 7.910156 -4.644531 6.921875 -5.589844 6.707031 -6.921875 L 1.117188 -5.289062 C 1.675781 -1.804688 4.472656 0.34375 9.199219 0.34375 C 14.488281 0.34375 17.414062 -2.363281 17.414062 -6.621094 Z M 17.414062 -25.796875 "/></g></g></g><g fill="#ffffff" fill-opacity="1"><g transform="translate(229.371499, 72.995132)"><g><path d="M 13.113281 0.34375 C 19.21875 0.34375 23.863281 -3.398438 23.863281 -8.253906 L 23.863281 -25.796875 L 18.1875 -25.796875 L 18.1875 -9.328125 C 18.1875 -6.707031 15.992188 -4.6875 13.113281 -4.6875 C 10.277344 -4.6875 8.082031 -6.707031 8.082031 -9.328125 L 8.082031 -25.796875 L 2.40625 -25.796875 L 2.40625 -8.253906 C 2.40625 -3.398438 7.09375 0.34375 13.113281 0.34375 Z M 13.113281 0.34375 "/></g></g></g><g fill="#ffffff" fill-opacity="1"><g transform="translate(257.153793, 72.995132)"><g><path d="M 18.316406 0 L 24.378906 0 L 15.089844 -25.796875 L 8.726562 -25.796875 L -0.558594 0 L 5.503906 0 L 7.09375 -4.859375 L 16.722656 -4.859375 Z M 8.597656 -9.585938 L 11.910156 -19.820312 L 15.21875 -9.585938 Z M 8.597656 -9.585938 "/></g></g></g><g fill="#ffffff" fill-opacity="1"><g transform="translate(282.485472, 72.995132)"><g><path d="M 21.066406 -25.796875 L 21.066406 -8.726562 L 8.382812 -25.796875 L 2.535156 -25.796875 L 2.535156 0 L 8.210938 0 L 8.210938 -17.113281 L 20.851562 0 L 26.699219 0 L 26.699219 -25.796875 Z M 21.066406 -25.796875 "/></g></g></g><g fill="#ffffff" fill-opacity="1"><g transform="translate(313.277287, 72.995132)"><g/></g></g><g fill="#ffffff" fill-opacity="1"><g transform="translate(325.109127, 72.995132)"><g><path d="M 18.316406 0 L 24.378906 0 L 15.089844 -25.796875 L 8.726562 -25.796875 L -0.558594 0 L 5.503906 0 L 7.09375 -4.859375 L 16.722656 -4.859375 Z M 8.597656 -9.585938 L 11.910156 -19.820312 L 15.21875 -9.585938 Z M 8.597656 -9.585938 "/></g></g></g><g fill="#ffffff" fill-opacity="1"><g transform="translate(350.440806, 72.995132)"><g><path d="M 8.210938 -5.03125 L 8.210938 -25.796875 L 2.535156 -25.796875 L 2.535156 0 L 16.765625 0 L 16.765625 -5.03125 Z M 8.210938 -5.03125 "/></g></g></g><g fill="#ffffff" fill-opacity="1"><g transform="translate(368.807599, 72.995132)"><g><path d="M 18.058594 -13.070312 C 19.992188 -14.101562 21.238281 -15.90625 21.238281 -18.617188 C 21.238281 -23.171875 17.800781 -25.796875 13.457031 -25.796875 L 2.535156 -25.796875 L 2.535156 0 L 14.445312 0 C 18.746094 0 22.097656 -2.492188 22.097656 -7.050781 C 22.097656 -10.191406 20.464844 -12.125 18.058594 -13.070312 Z M 15.5625 -18.015625 C 15.5625 -16.507812 14.316406 -15.21875 12.769531 -15.21875 L 8.210938 -15.21875 L 8.210938 -20.765625 L 12.769531 -20.765625 C 14.316406 -20.765625 15.5625 -19.5625 15.5625 -18.015625 Z M 13.628906 -5.03125 L 8.210938 -5.03125 L 8.210938 -10.578125 L 13.628906 -10.578125 C 15.21875 -10.578125 16.421875 -9.285156 16.421875 -7.78125 C 16.421875 -6.234375 15.21875 -5.03125 13.628906 -5.03125 Z M 13.628906 -5.03125 "/></g></g></g><g fill="#ffffff" fill-opacity="1"><g transform="translate(393.666363, 72.995132)"><g><path d="M 18.273438 -20.808594 L 18.273438 -25.796875 L 2.75 -25.796875 L 2.75 0 L 18.273438 0 L 18.273438 -4.988281 L 8.425781 -4.988281 L 8.425781 -10.40625 L 16.855469 -10.40625 L 16.855469 -15.390625 L 8.425781 -15.390625 L 8.425781 -20.808594 Z M 18.273438 -20.808594 "/></g></g></g><g fill="#ffffff" fill-opacity="1"><g transform="translate(415.214636, 72.995132)"><g><path d="M 15.992188 -10.621094 C 19.046875 -11.523438 21.195312 -14.359375 21.195312 -17.886719 C 21.195312 -22.269531 17.929688 -25.796875 13.5 -25.796875 L 2.535156 -25.796875 L 2.535156 0 L 8.210938 0 L 8.210938 -9.972656 L 10.492188 -9.972656 L 16.855469 0 L 23.214844 0 Z M 12.640625 -14.660156 L 8.210938 -14.660156 L 8.210938 -20.765625 L 12.640625 -20.765625 C 14.445312 -20.765625 15.777344 -19.476562 15.777344 -17.714844 C 15.777344 -15.90625 14.445312 -14.660156 12.640625 -14.660156 Z M 12.640625 -14.660156 "/></g></g></g><g fill="#ffffff" fill-opacity="1"><g transform="translate(439.729435, 72.995132)"><g><path d="M 18.445312 -25.796875 L -0.214844 -25.796875 L -0.214844 -20.765625 L 6.320312 -20.765625 L 6.320312 0 L 11.953125 0 L 11.953125 -20.765625 L 18.445312 -20.765625 Z M 18.445312 -25.796875 "/></g></g></g><g fill="#ffffff" fill-opacity="1"><g transform="translate(459.472003, 72.995132)"><g><path d="M 14.832031 0.34375 C 22.183594 0.34375 28.074219 -5.589844 28.074219 -12.898438 C 28.074219 -20.207031 22.183594 -26.140625 14.832031 -26.140625 C 7.523438 -26.140625 1.589844 -20.207031 1.589844 -12.898438 C 1.589844 -5.589844 7.523438 0.34375 14.832031 0.34375 Z M 14.832031 -5.203125 C 10.492188 -5.203125 7.179688 -8.554688 7.179688 -12.898438 C 7.179688 -17.242188 10.492188 -20.59375 14.832031 -20.59375 C 19.21875 -20.59375 22.527344 -17.242188 22.527344 -12.898438 C 22.527344 -8.554688 19.21875 -5.203125 14.832031 -5.203125 Z M 14.832031 -5.203125 "/></g></g></g><g fill="#ffffff" fill-opacity="1"><g transform="translate(227.855529, 101.266438)"><g><path d="M 11.144531 -16.507812 L 0.246094 -16.507812 L 0.246094 -14.75 L 4.816406 -14.75 L 4.816406 0 L 6.578125 0 L 6.578125 -14.75 L 11.144531 -14.75 Z M 11.144531 -16.507812 "/></g></g></g><g fill="#ffffff" fill-opacity="1"><g transform="translate(246.619049, 101.266438)"><g><path d="M 9.824219 0.21875 C 14.527344 0.21875 18.296875 -3.578125 18.296875 -8.253906 C 18.296875 -12.933594 14.527344 -16.730469 9.824219 -16.730469 C 5.144531 -16.730469 1.347656 -12.933594 1.347656 -8.253906 C 1.347656 -3.578125 5.144531 0.21875 9.824219 0.21875 Z M 9.824219 -1.539062 C 6.109375 -1.539062 3.109375 -4.511719 3.109375 -8.253906 C 3.109375 -11.996094 6.109375 -14.96875 9.824219 -14.96875 C 13.566406 -14.96875 16.535156 -11.996094 16.535156 -8.253906 C 16.535156 -4.511719 13.566406 -1.539062 9.824219 -1.539062 Z M 9.824219 -1.539062 "/></g></g></g><g fill="#ffffff" fill-opacity="1"><g transform="translate(273.663021, 101.266438)"><g><path d="M 3.769531 -1.761719 L 3.769531 -16.507812 L 2.007812 -16.507812 L 2.007812 0 L 9.90625 0 L 9.90625 -1.761719 Z M 3.769531 -1.761719 "/></g></g></g><g fill="#ffffff" fill-opacity="1"><g transform="translate(291.188599, 101.266438)"><g><path d="M 11.171875 -14.804688 L 11.171875 -16.507812 L 2.144531 -16.507812 L 2.144531 0 L 11.171875 0 L 11.171875 -1.707031 L 3.90625 -1.707031 L 3.90625 -7.402344 L 10.234375 -7.402344 L 10.234375 -9.109375 L 3.90625 -9.109375 L 3.90625 -14.804688 Z M 11.171875 -14.804688 "/></g></g></g><g fill="#ffffff" fill-opacity="1"><g transform="translate(311.382631, 101.266438)"><g><path d="M 2.007812 0 L 6.519531 0 C 11.0625 0 14.777344 -3.6875 14.777344 -8.253906 C 14.777344 -12.824219 11.0625 -16.507812 6.519531 -16.507812 L 2.007812 -16.507812 Z M 3.742188 -1.761719 L 3.742188 -14.75 L 6.492188 -14.75 C 10.152344 -14.75 13.015625 -11.96875 13.015625 -8.253906 C 13.015625 -4.539062 10.152344 -1.761719 6.492188 -1.761719 Z M 3.742188 -1.761719 "/></g></g></g><g fill="#ffffff" fill-opacity="1"><g transform="translate(334.877831, 101.266438)"><g><path d="M 9.824219 0.21875 C 14.527344 0.21875 18.296875 -3.578125 18.296875 -8.253906 C 18.296875 -12.933594 14.527344 -16.730469 9.824219 -16.730469 C 5.144531 -16.730469 1.347656 -12.933594 1.347656 -8.253906 C 1.347656 -3.578125 5.144531 0.21875 9.824219 0.21875 Z M 9.824219 -1.539062 C 6.109375 -1.539062 3.109375 -4.511719 3.109375 -8.253906 C 3.109375 -11.996094 6.109375 -14.96875 9.824219 -14.96875 C 13.566406 -14.96875 16.535156 -11.996094 16.535156 -8.253906 C 16.535156 -4.511719 13.566406 -1.539062 9.824219 -1.539062 Z M 9.824219 -1.539062 "/></g></g></g><g fill="#ffffff" fill-opacity="1"><g transform="translate(361.921797, 101.266438)"><g/></g></g><g fill="#ffffff" fill-opacity="1"><g transform="translate(375.926114, 101.266438)"><g><path d="M 11.144531 -16.507812 L 0.246094 -16.507812 L 0.246094 -14.75 L 4.816406 -14.75 L 4.816406 0 L 6.578125 0 L 6.578125 -14.75 L 11.144531 -14.75 Z M 11.144531 -16.507812 "/></g></g></g><g fill="#ffffff" fill-opacity="1"><g transform="translate(394.68964, 101.266438)"><g><path d="M 11.171875 -14.804688 L 11.171875 -16.507812 L 2.144531 -16.507812 L 2.144531 0 L 11.171875 0 L 11.171875 -1.707031 L 3.90625 -1.707031 L 3.90625 -7.402344 L 10.234375 -7.402344 L 10.234375 -9.109375 L 3.90625 -9.109375 L 3.90625 -14.804688 Z M 11.171875 -14.804688 "/></g></g></g><g fill="#ffffff" fill-opacity="1"><g transform="translate(414.883678, 101.266438)"><g><path d="M 3.769531 -1.761719 L 3.769531 -16.507812 L 2.007812 -16.507812 L 2.007812 0 L 9.90625 0 L 9.90625 -1.761719 Z M 3.769531 -1.761719 "/></g></g></g><g fill="#ffffff" fill-opacity="1"><g transform="translate(432.409251, 101.266438)"><g><path d="M 3.769531 -1.761719 L 3.769531 -16.507812 L 2.007812 -16.507812 L 2.007812 0 L 9.90625 0 L 9.90625 -1.761719 Z M 3.769531 -1.761719 "/></g></g></g><g fill="#ffffff" fill-opacity="1"><g transform="translate(449.934824, 101.266438)"><g><path d="M 9.824219 0.21875 C 14.527344 0.21875 18.296875 -3.578125 18.296875 -8.253906 C 18.296875 -12.933594 14.527344 -16.730469 9.824219 -16.730469 C 5.144531 -16.730469 1.347656 -12.933594 1.347656 -8.253906 C 1.347656 -3.578125 5.144531 0.21875 9.824219 0.21875 Z M 9.824219 -1.539062 C 6.109375 -1.539062 3.109375 -4.511719 3.109375 -8.253906 C 3.109375 -11.996094 6.109375 -14.96875 9.824219 -14.96875 C 13.566406 -14.96875 16.535156 -11.996094 16.535156 -8.253906 C 16.535156 -4.511719 13.566406 -1.539062 9.824219 -1.539062 Z M 9.824219 -1.539062 "/></g></g></g></svg>